<svg xmlns="http://www.w3.org/2000/svg" viewBox="0 0 800 450" width="800" height="450">
  <defs>
    <linearGradient id="bg" x1="0%" y1="0%" x2="100%" y2="100%">
      <stop offset="0%" style="stop-color:#101820"/>
      <stop offset="100%" style="stop-color:#1a1008"/>
    </linearGradient>
  </defs>
  <rect width="800" height="450" fill="url(#bg)"/>

  <!-- Gear large -->
  <g transform="translate(200,225)">
    <circle cx="0" cy="0" r="80" fill="none" stroke="#c8621e" stroke-width="12" opacity="0.6"/>
    <circle cx="0" cy="0" r="30" fill="#c8621e" opacity="0.3"/>
    <circle cx="0" cy="0" r="12" fill="#c8621e" opacity="0.8"/>
    <!-- Teeth -->
    <rect x="-8" y="-95" width="16" height="22" fill="#c8621e" opacity="0.6" rx="2"/>
    <rect x="-8" y="73" width="16" height="22" fill="#c8621e" opacity="0.6" rx="2"/>
    <rect x="73" y="-8" width="22" height="16" fill="#c8621e" opacity="0.6" rx="2"/>
    <rect x="-95" y="-8" width="22" height="16" fill="#c8621e" opacity="0.6" rx="2"/>
    <rect x="50" y="-75" width="16" height="22" fill="#c8621e" opacity="0.5" rx="2" transform="rotate(45)"/>
    <rect x="50" y="-75" width="16" height="22" fill="#c8621e" opacity="0.5" rx="2" transform="rotate(90)"/>
    <rect x="50" y="-75" width="16" height="22" fill="#c8621e" opacity="0.5" rx="2" transform="rotate(135)"/>
    <rect x="50" y="-75" width="16" height="22" fill="#c8621e" opacity="0.5" rx="2" transform="rotate(180)"/>
    <rect x="50" y="-75" width="16" height="22" fill="#c8621e" opacity="0.5" rx="2" transform="rotate(225)"/>
    <rect x="50" y="-75" width="16" height="22" fill="#c8621e" opacity="0.5" rx="2" transform="rotate(270)"/>
    <rect x="50" y="-75" width="16" height="22" fill="#c8621e" opacity="0.5" rx="2" transform="rotate(315)"/>
  </g>

  <!-- Gear small -->
  <g transform="translate(320,165)">
    <circle cx="0" cy="0" r="48" fill="none" stroke="#4a9edd" stroke-width="8" opacity="0.6"/>
    <circle cx="0" cy="0" r="16" fill="#4a9edd" opacity="0.3"/>
    <circle cx="0" cy="0" r="7" fill="#4a9edd" opacity="0.8"/>
    <rect x="-5" y="-56" width="10" height="14" fill="#4a9edd" opacity="0.6" rx="1"/>
    <rect x="-5" y="42" width="10" height="14" fill="#4a9edd" opacity="0.6" rx="1"/>
    <rect x="42" y="-5" width="14" height="10" fill="#4a9edd" opacity="0.6" rx="1"/>
    <rect x="-56" y="-5" width="14" height="10" fill="#4a9edd" opacity="0.6" rx="1"/>
    <rect x="28" y="-50" width="10" height="14" fill="#4a9edd" opacity="0.4" rx="1" transform="rotate(45)"/>
    <rect x="28" y="-50" width="10" height="14" fill="#4a9edd" opacity="0.4" rx="1" transform="rotate(90)"/>
    <rect x="28" y="-50" width="10" height="14" fill="#4a9edd" opacity="0.4" rx="1" transform="rotate(135)"/>
    <rect x="28" y="-50" width="10" height="14" fill="#4a9edd" opacity="0.4" rx="1" transform="rotate(180)"/>
    <rect x="28" y="-50" width="10" height="14" fill="#4a9edd" opacity="0.4" rx="1" transform="rotate(225)"/>
    <rect x="28" y="-50" width="10" height="14" fill="#4a9edd" opacity="0.4" rx="1" transform="rotate(270)"/>
    <rect x="28" y="-50" width="10" height="14" fill="#4a9edd" opacity="0.4" rx="1" transform="rotate(315)"/>
  </g>

  <!-- Checklist -->
  <rect x="430" y="100" width="280" height="270" rx="4" fill="#ffffff" opacity="0.02" stroke="#ffffff" stroke-opacity="0.06" stroke-width="1"/>
  <text x="570" y="130" font-family="Arial,sans-serif" font-size="11" fill="#ffffff" opacity="0.38" text-anchor="middle" letter-spacing="2">CHECKLIST</text>
  <line x1="445" y1="140" x2="695" y2="140" stroke="#ffffff" stroke-opacity="0.06" stroke-width="1"/>

  <!-- Check items -->
  <circle cx="460" cy="165" r="8" fill="none" stroke="#2aaa60" stroke-width="1.5"/>
  <path d="M455,165 L458,169 L466,161" stroke="#2aaa60" stroke-width="1.5" fill="none"/>
  <text x="480" y="169" font-family="Arial,sans-serif" font-size="11" fill="#ffffff" opacity="0.50">Inspeção Visual</text>

  <circle cx="460" cy="198" r="8" fill="none" stroke="#2aaa60" stroke-width="1.5"/>
  <path d="M455,198 L458,202 L466,194" stroke="#2aaa60" stroke-width="1.5" fill="none"/>
  <text x="480" y="202" font-family="Arial,sans-serif" font-size="11" fill="#ffffff" opacity="0.50">Análise de Óleo</text>

  <circle cx="460" cy="231" r="8" fill="none" stroke="#2aaa60" stroke-width="1.5"/>
  <path d="M455,231 L458,235 L466,227" stroke="#2aaa60" stroke-width="1.5" fill="none"/>
  <text x="480" y="235" font-family="Arial,sans-serif" font-size="11" fill="#ffffff" opacity="0.50">Ensaios Elétricos</text>

  <circle cx="460" cy="264" r="8" fill="none" stroke="#c8621e" stroke-width="1.5"/>
  <text x="480" y="268" font-family="Arial,sans-serif" font-size="11" fill="#ffffff" opacity="0.38">Buchas e Isoladores</text>

  <circle cx="460" cy="297" r="8" fill="none" stroke="#c8621e" stroke-width="1.5"/>
  <text x="480" y="301" font-family="Arial,sans-serif" font-size="11" fill="#ffffff" opacity="0.38">Sílica Gel</text>

  <circle cx="460" cy="330" r="8" fill="none" stroke="#c8621e" stroke-width="1.5"/>
  <text x="480" y="334" font-family="Arial,sans-serif" font-size="11" fill="#ffffff" opacity="0.38">Temperatura</text>

  <!-- Wrench icon suggestion -->
  <line x1="120" y1="310" x2="280" y2="310" stroke="#c8621e" stroke-width="1" opacity="0.3"/>
  <text x="200" y="360" font-family="Arial,sans-serif" font-size="10" fill="#c8621e" text-anchor="middle" letter-spacing="3" opacity="0.6">MANUTENÇÃO</text>

  <!-- Title -->
  <text x="400" y="48" font-family="Arial,sans-serif" font-size="14" font-weight="bold" fill="#ffffff" text-anchor="middle" letter-spacing="2" opacity="0.6">MANUTENÇÃO PREVENTIVA</text>

  <rect x="0" y="435" width="800" height="15" fill="#c8621e" opacity="0.7"/>
</svg>
