<svg xmlns="http://www.w3.org/2000/svg" viewBox="0 0 800 480" width="800" height="480">
  <defs>
    <linearGradient id="bg" x1="0%" y1="0%" x2="100%" y2="100%">
      <stop offset="0%" style="stop-color:#060c18"/>
      <stop offset="100%" style="stop-color:#0f1828"/>
    </linearGradient>
    <filter id="glow">
      <feGaussianBlur stdDeviation="2.5" result="blur"/>
      <feMerge><feMergeNode in="blur"/><feMergeNode in="SourceGraphic"/></feMerge>
    </filter>
  </defs>

  <rect width="800" height="480" fill="url(#bg)"/>

  <!-- Panel enclosure -->
  <rect x="80" y="50" width="360" height="370" rx="5" fill="#111f35" stroke="#2a3a55" stroke-width="3"/>
  <rect x="88" y="58" width="344" height="354" rx="3" fill="#0c1828" stroke="#1a2840" stroke-width="1"/>

  <!-- DIN rail 1 - top section -->
  <rect x="96" y="76" width="328" height="6" rx="1" fill="#1e3050"/>
  <!-- Breakers on rail 1 - Main -->
  <g fill="#0a1525" stroke="#C4561E" stroke-width="1.5">
    <rect x="100" y="88" width="50" height="65" rx="2"/>
  </g>
  <text x="125" y="120" text-anchor="middle" font-family="monospace" font-size="9" fill="#C4561E">GERAL</text>
  <rect x="115" y="108" width="20" height="28" rx="3" fill="#C4561E"/>
  <rect x="118" y="135" width="14" height="18" rx="1" fill="#a03a10"/>

  <!-- Branch breakers row 1 -->
  <g fill="#0a1525" stroke="#2a3a55" stroke-width="1">
    <rect x="168" y="88" width="28" height="65" rx="2"/>
    <rect x="202" y="88" width="28" height="65" rx="2"/>
    <rect x="236" y="88" width="28" height="65" rx="2"/>
    <rect x="270" y="88" width="28" height="65" rx="2"/>
    <rect x="304" y="88" width="28" height="65" rx="2"/>
    <rect x="338" y="88" width="28" height="65" rx="2"/>
    <rect x="372" y="88" width="28" height="65" rx="2" stroke="#C4561E"/>
  </g>
  <!-- Handles -->
  <rect x="175" y="100" width="14" height="18" rx="2" fill="#C4561E"/>
  <rect x="209" y="100" width="14" height="18" rx="2" fill="#C4561E"/>
  <rect x="243" y="100" width="14" height="18" rx="2" fill="#2a3a55"/>
  <rect x="277" y="100" width="14" height="18" rx="2" fill="#C4561E"/>
  <rect x="311" y="100" width="14" height="18" rx="2" fill="#C4561E"/>
  <rect x="345" y="100" width="14" height="18" rx="2" fill="#2a3a55"/>
  <rect x="379" y="100" width="14" height="18" rx="2" fill="#C4561E"/>

  <!-- Wiring duct horizontal -->
  <rect x="96" y="162" width="328" height="20" rx="2" fill="#0d1a2e" stroke="#1a2840" stroke-width="1"/>
  <!-- Wire bundles in duct -->
  <g opacity="0.7">
    <line x1="105" y1="168" x2="415" y2="168" stroke="#C4561E" stroke-width="2"/>
    <line x1="105" y1="172" x2="415" y2="172" stroke="#4a9aff" stroke-width="2"/>
    <line x1="105" y1="176" x2="415" y2="176" stroke="#aaff00" stroke-width="2"/>
    <line x1="105" y1="180" x2="300" y2="180" stroke="#aaa" stroke-width="1"/>
  </g>

  <!-- DIN rail 2 -->
  <rect x="96" y="190" width="328" height="6" rx="1" fill="#1e3050"/>
  <!-- Contactors row -->
  <g fill="#0a1525" stroke="#2a3a55" stroke-width="1">
    <rect x="100" y="202" width="45" height="55" rx="2" stroke="#4a9aff" stroke-width="1.5"/>
    <rect x="155" y="202" width="45" height="55" rx="2" stroke="#4a9aff" stroke-width="1.5"/>
    <rect x="210" y="202" width="45" height="55" rx="2"/>
    <rect x="265" y="202" width="45" height="55" rx="2"/>
    <rect x="320" y="202" width="45" height="55" rx="2" stroke="#C4561E" stroke-width="1.5"/>
    <rect x="375" y="202" width="40" height="55" rx="2"/>
  </g>
  <!-- Contactor details -->
  <rect x="110" y="212" width="25" height="15" rx="2" fill="#0d3a5a"/>
  <rect x="165" y="212" width="25" height="15" rx="2" fill="#0d3a5a"/>
  <rect x="220" y="212" width="25" height="15" rx="2" fill="#1a2840"/>
  <rect x="275" y="212" width="25" height="15" rx="2" fill="#1a2840"/>
  <rect x="330" y="212" width="25" height="15" rx="2" fill="#3a0a0a"/>
  <!-- Coil labels -->
  <text x="122" y="240" text-anchor="middle" font-family="monospace" font-size="7" fill="#4a9aff">KM1</text>
  <text x="177" y="240" text-anchor="middle" font-family="monospace" font-size="7" fill="#4a9aff">KM2</text>
  <text x="232" y="240" text-anchor="middle" font-family="monospace" font-size="7" fill="#4a7aaa">KM3</text>
  <text x="287" y="240" text-anchor="middle" font-family="monospace" font-size="7" fill="#4a7aaa">KM4</text>
  <text x="342" y="240" text-anchor="middle" font-family="monospace" font-size="7" fill="#C4561E">KM5</text>

  <!-- Wiring duct 2 -->
  <rect x="96" y="264" width="328" height="20" rx="2" fill="#0d1a2e" stroke="#1a2840" stroke-width="1"/>
  <g opacity="0.6">
    <line x1="105" y1="270" x2="415" y2="270" stroke="#C4561E" stroke-width="1.5"/>
    <line x1="105" y1="274" x2="415" y2="274" stroke="#4a9aff" stroke-width="1.5"/>
    <line x1="105" y1="278" x2="415" y2="278" stroke="#aaff00" stroke-width="1.5"/>
  </g>

  <!-- DIN rail 3 - CLP/relay section -->
  <rect x="96" y="291" width="328" height="6" rx="1" fill="#1e3050"/>
  <!-- CLP module -->
  <rect x="100" y="303" width="90" height="70" rx="3" fill="#0a1525" stroke="#4a9aff" stroke-width="1.5"/>
  <text x="145" y="320" text-anchor="middle" font-family="monospace" font-size="9" fill="#4a9aff">CLP</text>
  <!-- CLP I/O indicators -->
  <g>
    <circle cx="115" cy="335" r="4" fill="#00ff44" filter="url(#glow)"/>
    <circle cx="128" cy="335" r="4" fill="#00ff44" filter="url(#glow)"/>
    <circle cx="141" cy="335" r="4" fill="#ffaa00" filter="url(#glow)"/>
    <circle cx="154" cy="335" r="4" fill="#00ff44" filter="url(#glow)"/>
    <circle cx="167" cy="335" r="4" fill="#ff4422" filter="url(#glow)"/>
    <circle cx="180" cy="335" r="4" fill="#00ff44" filter="url(#glow)"/>
  </g>
  <text x="115" y="363" font-family="monospace" font-size="7" fill="#2a4a6a">I   O   AUX</text>

  <!-- Terminal blocks -->
  <g fill="#0a1525" stroke="#2a3a55" stroke-width="1">
    <rect x="210" y="303" width="15" height="70" rx="1"/>
    <rect x="228" y="303" width="15" height="70" rx="1"/>
    <rect x="246" y="303" width="15" height="70" rx="1"/>
    <rect x="264" y="303" width="15" height="70" rx="1"/>
    <rect x="282" y="303" width="15" height="70" rx="1"/>
    <rect x="300" y="303" width="15" height="70" rx="1"/>
    <rect x="318" y="303" width="15" height="70" rx="1"/>
    <rect x="336" y="303" width="15" height="70" rx="1"/>
    <rect x="354" y="303" width="15" height="70" rx="1"/>
    <rect x="372" y="303" width="15" height="70" rx="1"/>
    <rect x="390" y="303" width="15" height="70" rx="1"/>
  </g>
  <!-- Terminal colors -->
  <g opacity="0.8">
    <rect x="213" y="308" width="9" height="8" rx="1" fill="#C4561E"/>
    <rect x="231" y="308" width="9" height="8" rx="1" fill="#C4561E"/>
    <rect x="249" y="308" width="9" height="8" rx="1" fill="#4a9aff"/>
    <rect x="267" y="308" width="9" height="8" rx="1" fill="#4a9aff"/>
    <rect x="285" y="308" width="9" height="8" rx="1" fill="#aaff00"/>
    <rect x="303" y="308" width="9" height="8" rx="1" fill="#aaa"/>
    <rect x="321" y="308" width="9" height="8" rx="1" fill="#aaa"/>
    <rect x="339" y="308" width="9" height="8" rx="1" fill="#C4561E"/>
    <rect x="357" y="308" width="9" height="8" rx="1" fill="#4a9aff"/>
    <rect x="375" y="308" width="9" height="8" rx="1" fill="#aaff00"/>
    <rect x="393" y="308" width="9" height="8" rx="1" fill="#aaa"/>
  </g>

  <!-- Door hinges -->
  <rect x="80" y="100" width="8" height="20" rx="2" fill="#2a3a55"/>
  <rect x="80" y="330" width="8" height="20" rx="2" fill="#2a3a55"/>

  <!-- Right side - info panel -->
  <rect x="480" y="60" width="280" height="360" rx="6" fill="#08111e" stroke="#1a2840" stroke-width="1.5"/>
  <text x="620" y="82" text-anchor="middle" font-family="monospace" font-size="10" fill="#C4561E" letter-spacing="2">PAINÉIS ELÉTRICOS</text>
  <line x1="490" y1="90" x2="750" y2="90" stroke="#1a2840" stroke-width="1"/>

  <!-- Feature list -->
  <g font-family="monospace" font-size="9">
    <text x="495" y="115" fill="#4a9aff">▸</text><text x="508" y="115" fill="#aaa">Disjuntores termomagn.</text>
    <text x="495" y="135" fill="#4a9aff">▸</text><text x="508" y="135" fill="#aaa">Contatores industriais</text>
    <text x="495" y="155" fill="#4a9aff">▸</text><text x="508" y="155" fill="#aaa">CLPs Siemens / WEG</text>
    <text x="495" y="175" fill="#4a9aff">▸</text><text x="508" y="175" fill="#aaa">Relés de proteção</text>
    <text x="495" y="195" fill="#4a9aff">▸</text><text x="508" y="195" fill="#aaa">Blocos de terminais</text>
    <text x="495" y="215" fill="#4a9aff">▸</text><text x="508" y="215" fill="#aaa">Cabeamento estruturado</text>
    <text x="495" y="235" fill="#4a9aff">▸</text><text x="508" y="235" fill="#aaa">Automação industrial</text>
    <text x="495" y="255" fill="#4a9aff">▸</text><text x="508" y="255" fill="#aaa">Norma NBR-5410</text>
  </g>

  <line x1="490" y1="268" x2="750" y2="268" stroke="#1a2840" stroke-width="1"/>

  <!-- Status badges -->
  <rect x="495" y="280" width="100" height="24" rx="3" fill="#0d2010" stroke="#2a4a20" stroke-width="1"/>
  <text x="545" y="296" text-anchor="middle" font-family="monospace" font-size="9" fill="#aaff00">PROJETADO</text>
  <rect x="605" y="280" width="130" height="24" rx="3" fill="#0d1020" stroke="#C4561E" stroke-width="1"/>
  <text x="670" y="296" text-anchor="middle" font-family="monospace" font-size="9" fill="#C4561E">CERTIFICADO ABNT</text>
  <rect x="495" y="312" width="100" height="24" rx="3" fill="#0a1a30" stroke="#1a3a5a" stroke-width="1"/>
  <text x="545" y="328" text-anchor="middle" font-family="monospace" font-size="9" fill="#4a9aff">MONTADO</text>
  <rect x="605" y="312" width="130" height="24" rx="3" fill="#0d1828" stroke="#2a4a6a" stroke-width="1"/>
  <text x="670" y="328" text-anchor="middle" font-family="monospace" font-size="9" fill="#4a9aff">TESTADO EM FÁBRICA</text>

  <!-- Bottom label -->
  <rect x="0" y="430" width="800" height="50" fill="#060c18" opacity="0.9"/>
  <text x="400" y="461" text-anchor="middle" font-family="monospace" font-size="13" fill="#aaff00" letter-spacing="3">PAINÉIS ELÉTRICOS · AUTOMAÇÃO</text>
</svg>